<svg width="42" height="42" viewBox="0 0 42 42" fill="none" xmlns="http://www.w3.org/2000/svg">
<g clip-path="url(#clip0_159_660)">
<rect width="42" height="42" rx="8" fill="#2E3C3B"/>
<path d="M19.1364 60.9994C17.2201 61.0002 15.3269 60.572 13.5896 59.7447C11.8523 58.9174 10.313 57.7112 9.07986 56.2107C7.84673 54.7102 6.94959 52.9517 6.45143 51.0588C5.95328 49.1659 5.86618 47.1844 6.19625 45.2533L11.5037 14.4633C11.9648 11.7883 13.4459 9.41021 15.621 7.85222C17.7961 6.29423 20.4872 5.68395 23.1022 6.15565C25.7172 6.62736 28.0419 8.14239 29.5649 10.3675C31.0879 12.5926 31.6845 15.3454 31.2234 18.0205L29.5346 27.8164C28.9997 30.9018 27.29 33.6441 24.7807 35.4415C22.2715 37.2388 19.1677 37.9444 16.1505 37.4033L16.9763 32.611C18.7512 32.9289 20.5769 32.5137 22.0529 31.4564C23.529 30.3991 24.5348 28.7862 24.8498 26.9713L26.5383 17.1753C26.666 16.4769 26.657 15.7595 26.5119 15.0646C26.3667 14.3697 26.0884 13.7111 25.6929 13.127C25.2974 12.5429 24.7926 12.0448 24.2078 11.6615C23.6229 11.2782 22.9695 11.0173 22.2855 10.8939C21.6014 10.7706 20.9003 10.7872 20.2225 10.9428C19.5448 11.0984 18.9039 11.39 18.337 11.8005C17.7701 12.2111 17.2884 12.7326 16.9198 13.3349C16.5512 13.9371 16.3029 14.6081 16.1894 15.3091L10.8822 46.0991C10.6917 47.2044 10.7159 48.3373 10.9533 49.433C11.1908 50.5288 11.6369 51.5659 12.2662 52.4853C12.8955 53.4047 13.6957 54.1882 14.621 54.7913C15.5463 55.3943 16.5787 55.805 17.6592 55.9999C18.7397 56.1948 19.8471 56.1701 20.9182 55.9272C21.9894 55.6842 23.0033 55.2279 23.902 54.5841C24.8007 53.9404 25.5667 53.1218 26.1562 52.1753C26.7457 51.2287 27.1472 50.1726 27.3377 49.0673L31.3153 25.9916L36 26.8371L32.0224 49.9128C31.4871 53.0133 29.9033 55.8227 27.5479 57.8495C25.1925 59.8763 22.2155 60.9915 19.1377 61" fill="#FFBC4A"/>
</g>
<defs>
<clipPath id="clip0_159_660">
<rect width="42" height="42" rx="8" fill="white"/>
</clipPath>
</defs>
</svg>
