<svg width="40" height="34" viewBox="0 0 40 34" fill="none" xmlns="http://www.w3.org/2000/svg">
<path d="M13.6516 28.6069C13.6516 28.6069 13.5753 29.5819 13.7171 30.0143C14.5999 32.7195 16.5422 33.041 19.0942 33.2329C22.1791 33.4649 25.6982 31.3634 25.6852 29.3611C25.6652 26.3995 14.4006 27.3498 14.4006 27.3498L13.6516 28.6069Z" fill="#5C647C" stroke="#222222" stroke-width="1.2987" stroke-miterlimit="10"/>
<path d="M11.2027 6.05717C11.2027 6.05717 6.61495 10.8019 7.19117 15.0618C7.76838 19.3218 4.61367 18.9346 9.17147 25.0349C9.17147 25.0349 10.1711 30.3599 29.5937 28.5205C29.5937 28.5205 33.9208 25.9058 33.4394 19.8065C32.9591 13.7062 33.788 9.34969 27.6044 4.41192C25.6061 2.81594 22.2067 3.17496 19.9059 3.14579C15.0874 3.08445 11.5752 4.61606 11.2027 6.05818V6.05717Z" fill="#5C647C" stroke="#222222" stroke-width="1.2987" stroke-miterlimit="10" stroke-linejoin="round"/>
<path d="M9.10814 23.8799C9.10814 23.8799 9.03107 27.5439 10.3564 29.1596C11.3051 30.3161 13.8393 31.7818 15.1835 31.3152C16.6978 30.7895 18.3941 29.8801 18.8395 28.2248" fill="#5C647C"/>
<path d="M18.8947 28.2546C19.1713 29.0661 20.143 31.3163 23.7876 31.3163C26.0849 31.3163 27.7536 31.2022 28.4317 29.2602C28.7828 28.2546 28.9809 27.45 29.3304 26.6958" fill="#5C647C"/>
<path d="M11.0808 29.8606C10.2765 29.0445 9.78084 27.9085 9.49455 26.797C9.09985 25.2646 10.2626 23.9175 11.6154 23.0966C13.1329 22.1759 14.2964 20.906 15.1416 19.6745C15.9087 18.5569 17.1124 17.7534 18.4679 17.7534H19.8538C21.4386 17.7534 22.8514 18.8369 23.7951 20.11C24.8183 21.4901 26.2666 22.8953 27.6133 24.0896C28.541 24.9125 29.007 26.1437 28.8057 27.3673L28.6532 28.2936C28.5422 28.9683 28.1985 29.5828 27.6818 30.0306C27.2273 30.4246 26.6625 30.6689 26.0642 30.7305L25.9465 30.7426C24.537 30.8877 23.1921 30.1175 22.6039 28.8285L21.5577 26.5359C21.3492 26.0789 21.2413 25.5825 21.2413 25.0802V23.2826C21.2413 22.8621 21.1773 22.4036 20.8126 22.1943C19.6525 21.5284 16.7303 21.8023 16.5477 22.6468C16.1766 24.363 16.6529 24.0397 16.3356 25.1192C16.2818 25.3021 16.2028 25.4775 16.1128 25.6455L14.4272 28.7919C13.7234 30.1057 12.1268 30.9222 11.0808 29.8606Z" fill="#8F97AE"/>
<path fill-rule="evenodd" clip-rule="evenodd" d="M9.1184 23.3776C9.39405 23.3834 9.61278 23.6132 9.60704 23.8908C9.60703 23.8908 9.60703 23.8909 9.60703 23.8909L9.10782 23.8803L8.60861 23.8696C8.61445 23.592 8.84269 23.3717 9.1184 23.3776ZM9.10782 23.8803C8.60861 23.8696 8.60861 23.8697 8.60861 23.8698L8.60859 23.871L8.60853 23.8738L8.60838 23.8832C8.60826 23.8912 8.60811 23.9026 8.60798 23.9173C8.60772 23.9467 8.60753 23.9892 8.60779 24.0432C8.60829 24.1513 8.61055 24.3062 8.61751 24.4965C8.6314 24.8766 8.66416 25.4014 8.73993 25.98C8.8874 27.1061 9.21114 28.5537 9.97117 29.4802C10.5027 30.1281 11.4372 30.8235 12.4022 31.2983C12.889 31.5378 13.4024 31.7306 13.8963 31.8311C14.3843 31.9305 14.8937 31.948 15.3459 31.791C16.8668 31.263 18.8031 30.2819 19.3211 28.3567C19.3933 28.0887 19.2359 27.8125 18.9698 27.7399C18.7036 27.6673 18.4294 27.8257 18.3573 28.0937C17.9845 29.4791 16.5282 30.3168 15.0204 30.8402C14.8006 30.9165 14.4891 30.9258 14.0942 30.8454C13.7053 30.7662 13.2738 30.6078 12.8405 30.3947C11.9652 29.964 11.1583 29.3483 10.7411 28.8397C10.1757 28.1506 9.87533 26.9583 9.72999 25.8485C9.65936 25.3091 9.62854 24.817 9.61547 24.4595C9.60895 24.2811 9.60687 24.1371 9.60642 24.0385C9.60619 23.9892 9.60636 23.9514 9.60658 23.9263C9.60669 23.9138 9.60682 23.9044 9.60691 23.8985L9.60701 23.8921L9.60703 23.8909" fill="#222222"/>
<path fill-rule="evenodd" clip-rule="evenodd" d="M29.5415 26.2402C29.7914 26.3576 29.8995 26.6568 29.7829 26.9085C29.5672 27.3739 29.4196 27.8383 29.2436 28.3921C29.1447 28.7035 29.0367 29.0431 28.9027 29.427C28.5115 30.5474 27.808 31.1727 26.8781 31.4924C25.9978 31.795 24.9226 31.8191 23.7876 31.8191C21.8536 31.8191 20.5772 31.2182 19.7442 30.4636C18.921 29.718 18.5734 28.8611 18.4223 28.4178C18.3328 28.1552 18.4717 27.8692 18.7325 27.779C18.9933 27.6888 19.2773 27.8287 19.3669 28.0913C19.4924 28.4597 19.769 29.1336 20.412 29.7159C21.0451 30.2893 22.0769 30.8135 23.7876 30.8135C24.9498 30.8135 25.8575 30.7806 26.5555 30.5406C27.2038 30.3177 27.6737 29.915 27.9606 29.0934C28.0709 28.7775 28.1695 28.4684 28.2655 28.1675C28.4565 27.5689 28.6369 27.0032 28.8779 26.4832C28.9945 26.2315 29.2917 26.1227 29.5415 26.2402Z" fill="#222222"/>
<path d="M15.8986 25.8412C16.3779 26.5422 17.244 27.3289 18.5322 27.7965C18.9596 27.9514 19.435 27.9041 19.8294 27.6768C20.3747 27.3621 21.3332 26.5331 21.9403 25.6401C21.6407 24.7853 21.4008 24.7991 20.9916 24.0311C20.1118 23.6972 18.7786 23.5051 16.8742 23.9657C16.3577 24.7991 16.1482 24.9361 15.8986 25.8412Z" fill="#222222" stroke="#222222" stroke-width="1.2987" stroke-miterlimit="10"/>
<path d="M7.58467 11.8309L4.98022 9.44652L2.96097 11.1893C0.557239 10.6081 0.319946 6.83433 0.941716 5.96091C1.56349 5.08749 7.75982 0.850666 10.4608 0.848146C13.1617 0.845626 15.1498 4.2699 15.1498 4.2699" fill="#5C647C"/>
<path d="M7.58467 11.8309L4.98022 9.44652L2.96097 11.1893C0.557239 10.6081 0.319946 6.83433 0.941716 5.96091C1.56349 5.08749 7.75982 0.850666 10.4608 0.848146C13.1617 0.845626 15.1498 4.2699 15.1498 4.2699" stroke="#222222" stroke-width="1.2987" stroke-miterlimit="10" stroke-linecap="round"/>
<path d="M32.7029 11.8952L35.1586 8.72031L37.4665 10.3183L38.6199 4.12144C38.1186 3.86752 33.2522 2.28008 31.1201 0.848027C29.3645 -0.330603 24.9865 4.12144 24.9865 4.12144" fill="#5C647C"/>
<path d="M32.1893 11.4979C31.9699 11.7816 32.022 12.1894 32.3057 12.4088C32.5893 12.6282 32.9972 12.5761 33.2166 12.2925L32.1893 11.4979ZM35.1586 8.72031L35.5283 8.18645L34.645 8.32303L35.1586 8.72031ZM37.4665 10.3183L37.0968 10.8522L38.1049 10.4371L37.4665 10.3183ZM38.6199 4.12144L39.2583 4.24027C39.311 3.95678 39.1705 3.67246 38.9133 3.54216L38.6199 4.12144ZM31.1201 0.848027L31.4822 0.308981L31.482 0.308903L31.1201 0.848027ZM33.2166 12.2925L35.6722 9.1176L34.645 8.32303L32.1893 11.4979L33.2166 12.2925ZM34.789 9.25418L37.0968 10.8522L37.8361 9.78444L35.5283 8.18645L34.789 9.25418ZM38.1049 10.4371L39.2583 4.24027L37.9815 4.00262L36.8281 10.1995L38.1049 10.4371ZM38.9133 3.54216C38.7442 3.4565 38.29 3.29042 37.7614 3.09512C37.2013 2.88817 36.4851 2.62327 35.7191 2.32219C34.1686 1.71274 32.4818 0.980412 31.4822 0.308981L30.758 1.38707C31.8905 2.1477 33.7029 2.92512 35.244 3.53087C36.0238 3.8374 36.7514 4.10647 37.3114 4.31334C37.5927 4.41728 37.8286 4.50439 38.0101 4.57348C38.1008 4.608 38.1746 4.63678 38.2317 4.66002C38.2602 4.6716 38.2827 4.68108 38.2999 4.68864C38.3085 4.69237 38.315 4.69533 38.3198 4.69755C38.3247 4.69984 38.3268 4.70086 38.3265 4.70072L38.9133 3.54216ZM31.482 0.308903C30.7679 -0.170559 29.8947 -0.0143567 29.1889 0.25583C28.4517 0.538066 27.6852 1.02356 27.0104 1.51951C26.3289 2.02036 25.7085 2.55614 25.2606 2.96424C25.036 3.1689 24.8532 3.3429 24.7259 3.46632C24.6623 3.52806 24.6124 3.57722 24.5781 3.61134C24.561 3.6284 24.5477 3.6417 24.5385 3.65093C24.5339 3.65555 24.5304 3.65915 24.5278 3.6617C24.5266 3.66298 24.5256 3.66399 24.5249 3.66473C24.5245 3.6651 24.5242 3.6654 24.524 3.66564C24.5238 3.66576 24.5237 3.66589 24.5237 3.66594C24.5235 3.66605 24.5235 3.66615 24.9865 4.12144C25.4494 4.57674 25.4494 4.5768 25.4493 4.57684C25.4494 4.57683 25.4493 4.57685 25.4493 4.57684C25.4494 4.5768 25.4495 4.5767 25.4496 4.57653C25.45 4.5762 25.4506 4.5756 25.4514 4.57474C25.4531 4.57301 25.4559 4.57025 25.4596 4.56648C25.4671 4.55894 25.4786 4.54739 25.494 4.53212C25.5247 4.5016 25.5706 4.45626 25.6301 4.39857C25.7491 4.28312 25.922 4.11851 26.1353 3.92422C26.5631 3.53439 27.147 3.03082 27.7795 2.56599C28.4186 2.09625 29.0758 1.68973 29.6532 1.4687C30.2621 1.23561 30.5945 1.2773 30.7582 1.38715L31.482 0.308903Z" fill="#222222"/>
<path d="M4.98013 9.44657L8.31858 5.02469C9.15444 3.91746 10.6414 3.54135 11.8977 4.1206L12.1644 4.24329C12.5468 4.41928 12.6707 4.90502 12.421 5.24493L7.58358 11.831L4.97913 9.44657H4.98013Z" fill="#222222" stroke="#222222" stroke-width="1.2987" stroke-miterlimit="10" stroke-linejoin="round"/>
<path d="M35.1702 8.72048L31.9676 5.02469C31.1317 3.91746 29.6447 3.54135 28.3885 4.1206L28.1218 4.24329C27.7393 4.41928 27.6155 4.90502 27.8652 5.24493L32.7026 11.831L35.1702 8.72048Z" fill="#222222" stroke="#222222" stroke-width="1.2987" stroke-miterlimit="10"/>
<path d="M12.2083 17.8958C12.9424 17.8958 13.5375 17.2965 13.5375 16.5573C13.5375 15.818 12.9424 15.2188 12.2083 15.2188C11.4743 15.2188 10.8792 15.818 10.8792 16.5573C10.8792 17.2965 11.4743 17.8958 12.2083 17.8958Z" fill="#222222"/>
<path d="M25.6718 17.8958C26.4059 17.8958 27.001 17.2965 27.001 16.5573C27.001 15.818 26.4059 15.2188 25.6718 15.2188C24.9378 15.2188 24.3427 15.818 24.3427 16.5573C24.3427 17.2965 24.9378 17.8958 25.6718 17.8958Z" fill="#222222"/>
</svg>
