<svg width="645" height="174" viewBox="0 0 645 174" fill="none" xmlns="http://www.w3.org/2000/svg">
<g>
<g id="Logo" clip-path="url(#clip0_10535_4814)">
<path id="Path 1" d="M34.0204 22.0801H16.8897V46.5829H0V60.3049H16.8897V100.082C16.8897 104.873 16.9578 109.161 17.0942 112.946C17.2596 116.846 18.3057 120.658 20.1538 124.095C22.1813 128.091 25.5239 131.265 29.6176 133.081C34.1235 135.057 38.978 136.112 43.8966 136.185C49.3709 136.335 54.8449 135.869 60.2152 134.795V120.338C55.2379 121.13 50.1823 121.308 45.1616 120.868C40.891 120.406 37.7768 118.486 35.8191 115.11C34.7241 113.077 34.1495 110.803 34.1468 108.493C34.0653 105.88 34.0246 102.803 34.0246 99.2636V60.3049H60.2152V46.5829H34.0204V22.0801Z" fill="#1D9E75"/>
<path id="Path 2" d="M133.558 50.3833C127.248 46.2164 119.605 44.1332 110.631 44.1338C102.036 44.1338 94.5025 46.0669 88.0298 49.9331C81.5177 53.8415 76.2641 59.5401 72.8939 66.351C69.2766 73.43 67.4682 81.7881 67.4688 91.4254C67.4688 100.519 69.3046 108.51 72.9762 115.398C76.4862 122.119 81.8347 127.7 88.3963 131.49C95.0054 135.328 102.689 137.248 111.446 137.248C119.656 137.342 127.723 135.091 134.701 130.759C141.675 126.416 147.122 120.004 150.284 112.416L133.556 107.108C131.593 111.386 128.434 115.003 124.46 117.521C120.287 120.021 115.49 121.281 110.629 121.155C102.524 121.155 96.3228 118.501 92.0261 113.192C88.4736 108.803 86.414 102.893 85.7972 95.5082H151.425C152.078 84.9452 150.841 75.8246 147.713 68.1465C144.586 60.4684 139.867 54.5471 133.556 50.3824M92.0278 67.3311C96.3245 61.9401 102.743 59.2445 111.284 59.2445C119.006 59.2445 124.758 61.6949 128.541 66.5956C131.386 70.2838 133.191 75.484 133.955 82.1964H86.1621C87.0637 76.067 89.0186 71.1119 92.027 67.3311" fill="#1D9E75"/>
<path id="Path 3" d="M238.194 65.2871C236.821 61.5078 234.821 57.9871 232.279 54.8733C229.545 51.5723 226.1 48.9335 222.202 47.1545C218.067 45.1942 212.954 44.2143 206.863 44.2148C198.92 44.2148 192.148 45.9302 186.546 49.361C183.167 51.4196 180.183 54.0664 177.735 57.1764V46.5828H162.476V134.795H179.773V88.8914C179.672 84.3899 180.264 79.8999 181.528 75.5787C182.479 72.3259 184.121 69.3172 186.341 66.759C188.295 64.586 190.744 62.9185 193.481 61.8991C196.251 60.8832 199.18 60.3715 202.13 60.3881C206.807 60.3881 210.601 61.3411 213.512 63.247C216.388 65.1155 218.723 67.7069 220.285 70.762C221.908 73.9262 223.011 77.3325 223.549 80.8488C224.11 84.347 224.396 87.8837 224.406 91.4266V134.798H241.704V85.7903C241.67 82.6193 241.425 79.4541 240.969 76.3159C240.437 72.5526 239.507 68.8565 238.196 65.2896" fill="#1D9E75"/>
<path id="Path 4" d="M316.797 52.6235C315.848 51.7688 314.854 50.9656 313.819 50.2172C308.135 46.1619 301.131 44.1334 292.809 44.1317C284.54 44.1317 277.401 46.1602 271.391 50.2172C265.313 54.3528 260.497 60.092 257.477 66.799C254.113 74.2769 252.441 82.4069 252.582 90.6071C252.453 98.8025 254.109 106.928 257.437 114.417C260.409 121.149 265.181 126.93 271.226 131.12C277.183 135.204 284.268 137.246 292.481 137.246C300.912 137.246 307.984 135.19 313.696 131.078C315.515 129.761 317.209 128.278 318.755 126.649V134.799H333.931V17.1802H316.797V52.6235ZM316.308 106.779C314.895 111.154 312.192 114.998 308.556 117.806C305.019 120.474 300.45 121.809 294.848 121.809C289.408 121.809 284.906 120.42 281.344 117.643C277.678 114.724 274.908 110.831 273.349 106.41C271.519 101.345 270.62 95.9907 270.697 90.6054C270.623 85.2604 271.522 79.9467 273.349 74.9239C274.931 70.4939 277.748 66.6105 281.466 63.7338C285.11 60.957 289.761 59.5686 295.419 59.5686C300.748 59.5686 305.141 60.8754 308.597 63.4891C312.185 66.2916 314.856 70.1026 316.267 74.4338C318.009 79.6435 318.851 85.1124 318.756 90.6054C318.85 96.0954 318.023 101.562 316.308 106.778" fill="#1D9E75"/>
<path id="Path 5" d="M474.987 46.1335C472.115 46.3223 469.278 46.8713 466.543 47.7676C463.869 48.6286 461.349 49.9105 459.077 51.5651C456.739 53.1429 454.695 55.1197 453.039 57.4052C452.266 58.4645 451.557 59.5699 450.918 60.715V46.5803H435.74V134.794H452.957V90.28C452.942 86.9429 453.297 83.6144 454.018 80.3562C454.68 77.3347 455.853 74.4484 457.486 71.822C459.276 69.0588 461.666 66.7352 464.477 65.024C467.288 63.3128 470.448 62.2581 473.723 61.9381C476.932 61.5909 480.177 61.8125 483.31 62.593V46.5803C480.565 46.0867 477.769 45.9358 474.987 46.131" fill="#1D9E75"/>
<path id="Path 6" d="M529.722 14.9754C526.994 15.1592 524.31 15.7654 521.767 16.7726C518.945 17.9171 516.43 19.7072 514.423 21.9995C512.633 23.9655 511.284 26.2917 510.466 28.8223C509.685 31.259 509.206 33.7827 509.039 36.3365C508.876 38.8681 508.793 41.2502 508.79 43.4829V46.5864H494.188V60.3093H508.793V134.799H525.847V60.3059H548.122V46.5831H525.847V40.2129C525.847 36.5653 526.839 33.7474 528.825 31.7594C530.81 29.7714 533.815 28.7776 537.84 28.7782H548.121V14.73H537.029C534.798 14.73 532.363 14.8118 529.726 14.9754" fill="#1D9E75"/>
<path id="Path 7" d="M627.701 46.5835L602.836 112.884L576.786 46.5835H558.999L594.657 134.416L580.132 174H596.369L644.999 46.5835H627.701Z" fill="#1D9E75"/>
<path id="Path 8" d="M379.87 143.604C374.757 143.607 369.705 142.488 365.07 140.329C360.435 138.169 356.328 135.019 353.038 131.102C349.748 127.184 347.354 122.593 346.025 117.651C344.696 112.708 344.463 107.535 345.344 102.493L359.505 22.1037C360.735 15.1195 364.687 8.91055 370.49 4.84279C376.294 0.775028 383.474 -0.818336 390.451 0.413231C397.428 1.6448 403.63 5.6004 407.694 11.4099C411.757 17.2193 413.349 24.4068 412.119 31.391L407.613 56.9672C406.186 65.0229 401.624 72.1828 394.929 76.8755C388.234 81.5682 379.953 83.4103 371.903 81.9975L374.106 69.4852C378.842 70.3153 383.713 69.2312 387.651 66.4708C391.589 63.7104 394.273 59.4991 395.114 54.7606L399.619 29.1844C399.959 27.3608 399.935 25.4878 399.548 23.6735C399.161 21.8592 398.418 20.1398 397.363 18.6147C396.308 17.0896 394.961 15.7891 393.401 14.7883C391.84 13.7875 390.097 13.1064 388.272 12.7844C386.447 12.4623 384.576 12.5057 382.767 12.912C380.959 13.3183 379.249 14.0794 377.737 15.1514C376.224 16.2234 374.939 17.585 373.955 19.1574C372.972 20.7298 372.31 22.4817 372.007 24.312L357.847 104.701C357.338 107.587 357.403 110.545 358.036 113.406C358.67 116.267 359.86 118.975 361.539 121.375C363.218 123.775 365.353 125.821 367.822 127.396C370.291 128.97 373.045 130.042 375.928 130.551C378.811 131.06 381.766 130.996 384.624 130.361C387.482 129.727 390.187 128.536 392.585 126.855C394.983 125.174 397.026 123.037 398.599 120.566C400.172 118.094 401.243 115.337 401.751 112.451L412.364 52.2029L424.863 54.4103L414.251 114.658C412.823 122.754 408.597 130.089 402.312 135.38C396.028 140.672 388.085 143.584 379.873 143.606" fill="#FFBC4A"/>
</g>
</g>
<defs>
<clipPath id="clip0_10535_4814">
<rect width="645" height="174" fill="white"/>
</clipPath>
</defs>
</svg>
